<svg xmlns="http://www.w3.org/2000/svg" viewBox="0 0 1200 630">
  <defs>
    <linearGradient id="bg" x1="0%" x2="100%" y1="0%" y2="100%">
      <stop offset="0%" stop-color="#08110d" />
      <stop offset="100%" stop-color="#0f1f1d" />
    </linearGradient>
    <linearGradient id="accent" x1="0%" x2="100%" y1="0%" y2="100%">
      <stop offset="0%" stop-color="#44f0a1" />
      <stop offset="100%" stop-color="#19b8c4" />
    </linearGradient>
  </defs>
  <rect width="1200" height="630" fill="url(#bg)" />
  <g opacity="0.18">
    <path d="M0 90h1200M0 210h1200M0 330h1200M0 450h1200M0 570h1200" stroke="#29433d" />
    <path d="M120 0v630M300 0v630M480 0v630M660 0v630M840 0v630M1020 0v630" stroke="#29433d" />
  </g>
  <rect x="88" y="80" width="1024" height="470" rx="28" fill="#101917" stroke="#203630" />
  <text x="140" y="195" fill="#44f0a1" font-family="'JetBrains Mono', monospace" font-size="34">
    $ whoami
  </text>
  <text x="140" y="255" fill="#f4fff8" font-family="'Space Grotesk', Arial, sans-serif" font-size="68" font-weight="700">
    Danylo Oliveira
  </text>
  <text x="140" y="325" fill="#c2d8cc" font-family="'Space Grotesk', Arial, sans-serif" font-size="36">
    DevOps Engineer | Infraestrutura | CI/CD | Kubernetes | Terraform
  </text>
  <text x="140" y="410" fill="#8bb8ab" font-family="'JetBrains Mono', monospace" font-size="28">
    Automação, cloud e observabilidade para ambientes críticos
  </text>
  <circle cx="1010" cy="170" r="58" fill="url(#accent)" opacity="0.95" />
  <circle cx="1060" cy="220" r="18" fill="#44f0a1" />
</svg>
